<?xml version="1.0" encoding="UTF-8"?>
<svg width="42px" height="44px" viewBox="0 0 42 44" version="1.1" xmlns="http://www.w3.org/2000/svg" xmlns:xlink="http://www.w3.org/1999/xlink">
    <g id="QL-Demo-E2E-v3" stroke="none" stroke-width="1" fill="none" fill-rule="evenodd">
        <g id="Pre-approval-letter" transform="translate(-220.000000, -78.000000)" fill="#F68725" fill-rule="nonzero">
            <g id="Group-3" transform="translate(220.000000, 78.000000)">
                <path d="M12.5344166,43.0217475 C12.5875811,43.0750737 12.6939102,43.0750737 12.7470748,43.0750737 C12.959733,43.0750737 13.1723912,42.9684214 13.2255558,42.7551168 L20.4559356,25.2641391 C20.5622647,24.9975084 20.4559356,24.6775515 20.1901128,24.5708992 C19.92429,24.4642468 19.6053026,24.5708992 19.4989735,24.8375299 L12.2685938,42.3285076 C12.1622647,42.5951383 12.2685938,42.9150952 12.5344166,43.0217475 Z" id="Shape"></path>
                <path d="M24.2829114,15.5054534 C24.3360759,15.5587796 24.4424051,15.5587796 24.4955696,15.5587796 C24.7082278,15.5587796 24.9208861,15.4521273 24.9740506,15.2388227 L30.7689873,1.26737101 C30.8753165,1.00074025 30.7689873,0.680783343 30.5031646,0.57413104 C30.2373418,0.467478737 29.9183544,0.57413104 29.8120253,0.840761797 L23.9639241,14.8122135 C23.8575949,15.0788442 23.9639241,15.3988011 24.2829114,15.5054534 Z" id="Shape"></path>
                <path d="M17.6265174,26.2656038 C17.4138591,26.0522992 17.0948718,26.1056253 16.8822136,26.3189299 L11.2999351,32.5047635 C11.0872768,32.7180681 11.1404414,33.038025 11.3530996,33.2513296 C11.4594287,33.3579819 11.5657579,33.411308 11.7252515,33.411308 C11.8847452,33.411308 11.9910743,33.3579819 12.0974034,33.2513296 L17.6796819,27.065496 C17.8391756,26.7988653 17.8391756,26.4789084 17.6265174,26.2656038 Z" id="Shape"></path>
                <path d="M9.46329114,33.7554538 L7.60253165,35.6751953 C7.38987342,35.8884999 7.38987342,36.2084568 7.60253165,36.4217614 C7.70886076,36.5284137 7.81518987,36.5817398 7.97468354,36.5817398 C8.13417722,36.5817398 8.24050633,36.5284137 8.34683544,36.4217614 L10.2075949,34.5020199 C10.4202532,34.2887153 10.4202532,33.9687584 10.2075949,33.7554538 C9.99493671,33.5421492 9.67594937,33.5421492 9.46329114,33.7554538 Z" id="Shape"></path>
                <path d="M24.1125933,18.6399641 C24.2189224,18.7466164 24.3252515,18.7999426 24.4847452,18.7999426 C24.6442389,18.7999426 24.750568,18.7466164 24.8568971,18.6399641 L32.193606,10.481063 C32.4062642,10.2677584 32.3530996,9.94780145 32.1404414,9.73449684 C31.9277832,9.52119223 31.6087958,9.57451839 31.3961376,9.78782299 L24.0594287,17.893398 C23.8467705,18.1067026 23.8999351,18.4266595 24.1125933,18.6399641 Z" id="Shape"></path>
                <path d="M2.1779257,31.6975731 C2.28425482,31.8575516 2.44374849,31.9642039 2.65640672,31.9642039 C2.76273583,31.9642039 2.81590039,31.9642039 2.9222295,31.9108777 L19.7222295,22.8987581 C19.9880523,22.7387797 20.0943814,22.4188228 19.9348877,22.152192 C19.7753941,21.8855612 19.4564067,21.7789089 19.1905839,21.9388874 L2.39058393,31.0043331 C2.12476115,31.1109854 2.07159659,31.4309423 2.1779257,31.6975731 Z" id="Shape"></path>
                <path d="M27.1888616,17.9927522 C27.2951907,18.1527307 27.4546844,18.259383 27.6673426,18.259383 C27.7736717,18.259383 27.8268363,18.259383 27.9331654,18.2060568 L41.064811,11.1670048 C41.3306338,11.0070264 41.4369629,10.6870695 41.2774692,10.4204387 C41.1179755,10.1538079 40.7989882,10.0471556 40.5331654,10.2071341 L27.4015198,17.2995122 C27.1356971,17.4061645 27.0293679,17.7261214 27.1888616,17.9927522 Z" id="Shape"></path>
                <path d="M3.78288477,24.4849296 L14.4689607,22.8851451 C14.7347835,22.8318189 14.9474417,22.5651882 14.8942772,22.2985574 C14.8411126,22.0319267 14.5752898,21.8186221 14.3094671,21.8719482 L3.6233911,23.4717328 C3.35756832,23.5250589 3.14491009,23.7916897 3.19807465,24.0583204 C3.2512392,24.3249512 3.46389743,24.5382558 3.72972022,24.5382558 C3.72972022,24.5382558 3.78288477,24.5382558 3.78288477,24.4849296 Z" id="Shape"></path>
                <path d="M22.8689607,21.7119698 C22.8689607,21.7119698 22.9221253,21.7119698 22.9221253,21.7119698 L40.3069354,19.1523145 C40.5727582,19.0989883 40.7854164,18.8323576 40.7322519,18.5657268 C40.6790873,18.2990961 40.4132645,18.0857915 40.1474417,18.1391176 L22.7626316,20.6987729 C22.4968088,20.752099 22.2841506,21.0187298 22.3373152,21.2853605 C22.3373152,21.5519913 22.6031379,21.7119698 22.8689607,21.7119698 Z" id="Shape"></path>
                <path d="M0.433517684,17.6077353 L15.4259227,20.5939998 C15.4790873,20.5939998 15.4790873,20.5939998 15.5322519,20.5939998 C15.7980746,20.5939998 16.0107329,20.4340213 16.0638974,20.1673905 C16.117062,19.9007598 15.9575683,19.5808029 15.638581,19.5274767 L0.646175912,16.5412122 C0.380353127,16.4878861 0.0613657853,16.6478646 0.00820122832,16.9678215 C-0.0449633286,17.2877784 0.167694899,17.5544091 0.433517684,17.6077353 Z" id="Shape"></path>
                <path d="M27.6556443,22.2985574 C27.6024798,22.5651882 27.7619734,22.8851451 28.0809608,22.9384712 L41.0531127,25.5514527 C41.1062772,25.5514527 41.1062772,25.5514527 41.1594418,25.5514527 C41.4252646,25.5514527 41.6379228,25.3914742 41.6910874,25.1248434 C41.7442519,24.8582127 41.5847582,24.5382558 41.2657709,24.4849296 L28.293619,21.8719482 C28.0277962,21.8186221 27.7088089,22.0319267 27.6556443,22.2985574 Z" id="Shape"></path>
                <path d="M33.1983122,27.7532992 L25.2767932,23.0072717 C25.0109705,22.8472933 24.6919831,22.9539456 24.5324895,23.1672502 C24.3729958,23.433881 24.4793249,23.7538379 24.6919831,23.9138163 L32.6135021,28.6598438 C32.7198312,28.7131699 32.7729958,28.7131699 32.8793249,28.7131699 C33.0388186,28.7131699 33.2514768,28.6065176 33.3578059,28.4465392 C33.5172996,28.2332346 33.4109705,27.8599515 33.1983122,27.7532992 Z" id="Shape"></path>
                <path d="M19.428692,19.8077027 C19.5881857,19.5410719 19.4818565,19.221115 19.2691983,19.0611365 L9.85907173,13.4085645 C9.59324895,13.248586 9.2742616,13.3552384 9.11476793,13.568543 C8.95527426,13.8351737 9.06160338,14.1551306 9.2742616,14.3151091 L18.6312236,19.9676811 C18.7375527,20.0210073 18.7907173,20.0210073 18.8970464,20.0210073 C19.1097046,20.0743334 19.3223629,19.9676811 19.428692,19.8077027 Z" id="Shape"></path>
                <path d="M35.5375527,30.7395637 C35.6438819,30.7928898 35.6970464,30.7928898 35.8033755,30.7928898 C35.9628692,30.7928898 36.1755274,30.6862375 36.2818565,30.5262591 C36.4413502,30.2596283 36.3350211,29.9396714 36.1223629,29.779693 L35.3780591,29.4064099 C35.1122363,29.2464315 34.7932489,29.3530838 34.6337553,29.5663884 C34.4742616,29.8330191 34.5805907,30.152976 34.7932489,30.3129545 L35.5375527,30.7395637 Z" id="Shape"></path>
                <path d="M6.65236887,12.7686507 L7.39667266,13.1952599 C7.50300178,13.248586 7.55616634,13.248586 7.66249545,13.248586 C7.82198912,13.248586 8.03464735,13.1419337 8.14097646,12.9819553 C8.30047013,12.7153245 8.19414102,12.3953676 7.98148279,12.2353892 L7.23717899,11.80878 C6.97135621,11.6488015 6.65236887,11.7554538 6.4928752,11.9687584 C6.28021697,12.2887153 6.38654608,12.6086722 6.65236887,12.7686507 Z" id="Shape"></path>
                <path d="M25.70753,26.2614327 C25.4948718,26.4214111 25.4417072,26.7946942 25.6543655,27.0079988 L34.6923401,38.0998383 C34.7986693,38.2064906 34.9581629,38.3131429 35.1176566,38.3131429 C35.2239857,38.3131429 35.3303148,38.2598167 35.4366439,38.2064906 C35.6493022,38.0465121 35.7024667,37.6732291 35.4898085,37.4599244 L26.4518338,26.368085 C26.2923401,26.1014542 25.9201882,26.0481281 25.70753,26.2614327 Z" id="Shape"></path>
                <path d="M17.1480363,16.7202227 C17.2543655,16.826875 17.4138591,16.9335273 17.5733528,16.9335273 C17.6796819,16.9335273 17.786011,16.8802011 17.8923401,16.826875 C18.1049984,16.6668965 18.1581629,16.2936135 17.9455047,16.0803089 L8.90753001,4.98846937 C8.69487178,4.77516476 8.37588444,4.72183861 8.16322621,4.93514322 C7.95056799,5.09512167 7.89740343,5.46840473 8.11006166,5.68170934 L17.1480363,16.7202227 Z" id="Shape"></path>
                <path d="M22.1497613,22.9636519 C21.8839385,23.0703042 21.7244448,23.3902611 21.8307739,23.6568919 L27.3067233,39.1214758 C27.3598879,39.3347804 27.5725461,39.4947588 27.7852043,39.4947588 C27.8383689,39.4947588 27.8915334,39.4947588 27.944698,39.4414327 C28.2105208,39.3347804 28.3700144,39.0148235 28.2636853,38.7481927 L22.787736,23.2836088 C22.7345714,23.0169781 22.4155841,22.8569996 22.1497613,22.9636519 Z" id="Shape"></path>
                <path d="M14.9199205,4.45947738 L20.3958698,19.9240613 C20.4490344,20.1373659 20.6616926,20.2973443 20.8743509,20.2973443 C20.9275154,20.2973443 20.98068,20.2973443 21.0338445,20.2440182 C21.2996673,20.1373659 21.459161,19.817409 21.3528319,19.5507782 L15.8768825,4.08619432 C15.7705534,3.81956356 15.451566,3.65958511 15.1857433,3.76623741 C14.973085,3.87288972 14.8135914,4.13952047 14.9199205,4.45947738 Z" id="Shape"></path>
                <path d="M14.4940651,2.43308363 C14.5472296,2.64638824 14.7598879,2.80636669 14.9725461,2.80636669 C15.0257106,2.80636669 15.0788752,2.80636669 15.1320398,2.75304054 C15.3978625,2.64638824 15.5573562,2.32643133 15.4510271,2.05980057 L14.866217,0.353363727 C14.7598879,0.0867329698 14.4409005,-0.0732454843 14.1750777,0.0334068184 C13.909255,0.140059121 13.7497613,0.460016029 13.8560904,0.726646786 L14.4940651,2.43308363 Z" id="Shape"></path>
                <path d="M28.5295081,41.0744681 C28.2636853,41.1811204 28.1041917,41.5010773 28.2105208,41.7677081 L28.8484955,43.527471 C28.90166,43.7407757 29.1143182,43.9007541 29.3269765,43.9007541 C29.380141,43.9007541 29.4333056,43.9007541 29.4864701,43.847428 C29.7522929,43.7407757 29.9117866,43.4208187 29.8054575,43.154188 L29.1674828,41.394425 C29.0611537,41.1277942 28.7953309,41.0211419 28.5295081,41.0744681 Z" id="Shape"></path>
                <path d="M21.8506329,30.3959063 C21.5316456,30.3959063 21.3189873,30.6092109 21.3189873,30.9291678 L21.2658228,42.8742257 C21.2658228,43.1941826 21.478481,43.4074872 21.7974684,43.4074872 C21.7974684,43.4074872 21.7974684,43.4074872 21.7974684,43.4074872 C22.1164557,43.4074872 22.3291139,43.1941826 22.3291139,42.8742257 L22.3822785,30.9291678 C22.3822785,30.6092109 22.1696203,30.3959063 21.8506329,30.3959063 C21.8506329,30.3959063 21.8506329,30.3959063 21.8506329,30.3959063 Z" id="Shape"></path>
                <path d="M21.7974684,17.1176946 C21.7974684,17.1176946 21.7974684,17.1176946 21.7974684,17.1176946 C22.1164557,17.1176946 22.3291139,16.90439 22.3291139,16.5844331 L22.3822785,2.13304605 C22.3822785,1.81308915 22.1696203,1.59978454 21.8506329,1.59978454 C21.8506329,1.59978454 21.8506329,1.59978454 21.8506329,1.59978454 C21.5316456,1.59978454 21.3189873,1.81308915 21.3189873,2.13304605 L21.2658228,16.5844331 C21.2658228,16.8510638 21.478481,17.1176946 21.7974684,17.1176946 Z" id="Shape"></path>
            </g>
        </g>
    </g>
</svg>