<?xml version="1.0" encoding="iso-8859-1"?>
<!-- Generator: Adobe Illustrator 19.0.0, SVG Export Plug-In . SVG Version: 6.00 Build 0)  -->
<svg version="1.1" id="Layer_1" xmlns="http://www.w3.org/2000/svg" xmlns:xlink="http://www.w3.org/1999/xlink" x="0px" y="0px"
	 viewBox="0 0 512 512" style="enable-background:new 0 0 512 512;" xml:space="preserve">
<ellipse style="fill:#FDBB00;" cx="331.837" cy="124.596" rx="98.145" ry="124.596"/>
<path style="fill:#EDAB06;" d="M363.06,209.045c-54.205,0-98.148-55.783-98.148-124.595c0-23.903,5.307-46.232,14.5-65.199
	c-27.479,22.082-45.725,61.007-45.725,105.344c0,68.812,43.943,124.595,98.148,124.595c35.376,0,66.376-23.763,83.648-59.396
	C400.317,201.984,382.339,209.045,363.06,209.045z"/>
<ellipse style="fill:#A67C52;" cx="180.165" cy="169.002" rx="98.145" ry="124.596"/>
<path style="fill:#936841;" d="M211.39,253.452c-54.205,0-98.148-55.783-98.148-124.595c0-23.903,5.307-46.232,14.5-65.199
	c-27.479,22.082-45.725,61.007-45.725,105.344c0,68.812,43.943,124.595,98.148,124.595c35.376,0,66.376-23.763,83.648-59.396
	C248.647,246.39,230.669,253.452,211.39,253.452z"/>
<ellipse style="fill:#8CC63F;" cx="295.505" cy="236.123" rx="98.145" ry="124.596"/>
<path style="fill:#7EAF31;" d="M326.733,320.572c-54.205,0-98.148-55.783-98.148-124.595c0-23.903,5.307-46.232,14.5-65.199
	c-27.479,22.082-45.725,61.007-45.725,105.344c0,68.812,43.943,124.595,98.148,124.595c35.376,0,66.376-23.763,83.648-59.396
	C363.989,313.511,346.012,320.572,326.733,320.572z"/>
<path style="fill:#FDBB00;" d="M290.808,512c-4.619,0-8.364-3.745-8.364-8.364c0-13.075,2.832-19.956,5.332-26.025
	c2.185-5.307,4.071-9.891,4.071-19.657c0-9.767-1.887-14.35-4.071-19.658c-2.499-6.071-5.332-12.95-5.332-26.025
	s2.832-19.955,5.332-26.023c1.759-4.271,6.644-6.308,10.919-4.549c4.271,1.759,6.307,6.647,4.549,10.918
	c-2.185,5.306-4.071,9.887-4.071,19.654c0,9.767,1.887,14.35,4.071,19.658c2.499,6.071,5.332,12.95,5.332,26.026
	s-2.832,19.956-5.332,26.025c-2.185,5.307-4.071,9.891-4.071,19.658C299.172,508.256,295.427,512,290.808,512z"/>
<path style="fill:#8CC63F;" d="M170.762,444.881c-4.619,0-8.364-3.745-8.364-8.364c0-13.075,2.832-19.956,5.332-26.026
	c2.185-5.307,4.071-9.891,4.071-19.658c0-9.767-1.887-14.35-4.071-19.658c-2.499-6.07-5.332-12.95-5.332-26.025
	c0-13.073,2.832-19.952,5.332-26.022c0.277-0.67,0.552-1.342,0.824-2.022c1.714-4.289,6.578-6.378,10.871-4.662
	c4.289,1.714,6.376,6.581,4.662,10.871c-0.293,0.735-0.591,1.459-0.889,2.182c-2.185,5.307-4.071,9.889-4.071,19.654
	c0,9.767,1.887,14.35,4.071,19.657c2.499,6.07,5.332,12.95,5.332,26.025s-2.832,19.956-5.332,26.026
	c-2.185,5.307-4.071,9.891-4.071,19.658C179.126,441.137,175.382,444.881,170.762,444.881z"/>
<circle style="fill:#F9D67D;" cx="369.753" cy="62.538" r="18.4"/>
<circle style="fill:#BBE577;" cx="334.068" cy="187.257" r="18.4"/>
<circle style="fill:#CEA682;" cx="213.062" cy="100.264" r="18.4"/>
<g>
</g>
<g>
</g>
<g>
</g>
<g>
</g>
<g>
</g>
<g>
</g>
<g>
</g>
<g>
</g>
<g>
</g>
<g>
</g>
<g>
</g>
<g>
</g>
<g>
</g>
<g>
</g>
<g>
</g>
</svg>
